<svg width="942" height="180" viewBox="0 0 942 180" fill="none" xmlns="http://www.w3.org/2000/svg">
<path d="M194.76 137.27L230.69 56.4H249.18L285.46 137.27H265.82L236.13 65.87H243.64L213.95 137.27H194.77H194.76ZM212.9 119.94L217.64 105.73H259.46L264.31 119.94H212.9Z" fill="#444444"/>
<path d="M312.949 138.2C307.639 138.2 302.549 137.57 297.699 136.29C292.849 135.02 288.959 133.42 286.029 131.5L291.919 118.68C294.849 120.37 298.249 121.78 302.139 122.9C306.029 124.02 309.859 124.57 313.639 124.57C317.799 124.57 320.749 124.07 322.479 123.07C324.209 122.07 325.079 120.68 325.079 118.91C325.079 117.45 324.399 116.35 323.059 115.62C321.709 114.89 319.939 114.33 317.749 113.95C315.549 113.57 313.109 113.18 310.409 112.79C307.709 112.41 305.039 111.87 302.379 111.17C299.719 110.48 297.259 109.49 294.989 108.22C292.719 106.95 290.909 105.2 289.559 102.96C288.209 100.73 287.539 97.8401 287.539 94.2901C287.539 90.3601 288.699 86.88 291.009 83.83C293.319 80.79 296.589 78.42 300.829 76.72C305.069 75.03 310.189 74.1801 316.199 74.1801C320.509 74.1801 324.849 74.66 329.199 75.62C333.549 76.58 337.229 77.91 340.229 79.61L334.109 92.4301C331.179 90.7401 328.199 89.5401 325.159 88.8501C322.119 88.1601 319.209 87.81 316.439 87.81C312.279 87.81 309.279 88.3501 307.429 89.4301C305.579 90.5101 304.659 91.9 304.659 93.59C304.659 95.13 305.349 96.3 306.739 97.11C308.129 97.92 309.939 98.5201 312.169 98.9001C314.399 99.2901 316.869 99.67 319.559 100.06C322.259 100.45 324.909 100.98 327.529 101.68C330.149 102.37 332.589 103.36 334.869 104.63C337.139 105.9 338.949 107.65 340.299 109.89C341.649 112.13 342.319 115.01 342.319 118.56C342.319 122.34 341.159 125.71 338.849 128.67C336.539 131.64 333.209 133.97 328.859 135.66C324.509 137.35 319.209 138.2 312.969 138.2H312.949Z" fill="#444444"/>
<path d="M374.18 138.2C368.87 138.2 363.78 137.57 358.93 136.29C354.08 135.02 350.19 133.42 347.26 131.5L353.15 118.68C356.08 120.37 359.48 121.78 363.37 122.9C367.26 124.02 371.09 124.57 374.87 124.57C379.03 124.57 381.98 124.07 383.71 123.07C385.44 122.07 386.31 120.68 386.31 118.91C386.31 117.45 385.63 116.35 384.29 115.62C382.94 114.89 381.17 114.33 378.98 113.95C376.78 113.57 374.34 113.18 371.64 112.79C368.94 112.41 366.27 111.87 363.61 111.17C360.95 110.48 358.49 109.49 356.22 108.22C353.95 106.95 352.14 105.2 350.79 102.96C349.44 100.73 348.77 97.8401 348.77 94.2901C348.77 90.3601 349.93 86.88 352.24 83.83C354.55 80.79 357.82 78.42 362.06 76.72C366.3 75.03 371.42 74.1801 377.43 74.1801C381.74 74.1801 386.08 74.66 390.43 75.62C394.78 76.58 398.46 77.91 401.46 79.61L395.34 92.4301C392.41 90.7401 389.43 89.5401 386.39 88.8501C383.35 88.1601 380.44 87.81 377.67 87.81C373.51 87.81 370.51 88.3501 368.66 89.4301C366.81 90.5101 365.89 91.9 365.89 93.59C365.89 95.13 366.58 96.3 367.97 97.11C369.36 97.92 371.17 98.5201 373.4 98.9001C375.63 99.2901 378.1 99.67 380.79 100.06C383.49 100.45 386.14 100.98 388.76 101.68C391.38 102.37 393.82 103.36 396.1 104.63C398.37 105.9 400.18 107.65 401.53 109.89C402.88 112.13 403.55 115.01 403.55 118.56C403.55 122.34 402.39 125.71 400.08 128.67C397.77 131.64 394.44 133.97 390.09 135.66C385.74 137.35 380.44 138.2 374.2 138.2H374.18Z" fill="#444444"/>
<path d="M440.73 138.2C435.49 138.2 430.87 137.2 426.87 135.2C422.86 133.2 419.74 130.12 417.51 125.96C415.28 121.8 414.16 116.56 414.16 110.25V75.13H432.18V107.48C432.18 112.72 433.28 116.55 435.47 118.98C437.67 121.41 440.76 122.62 444.77 122.62C447.54 122.62 450.01 122 452.16 120.77C454.32 119.54 456.03 117.69 457.3 115.22C458.57 112.76 459.21 109.68 459.21 105.98V75.13H477.12V137.29H460.02V120.08L463.14 125.16C460.98 129.47 457.9 132.73 453.9 134.92C449.89 137.12 445.5 138.21 440.73 138.21V138.2Z" fill="#444444"/>
<path d="M493.76 137.27V75.1101H510.97V92.7901L508.54 87.5901C510.39 83.2001 513.35 79.8701 517.44 77.6001C521.52 75.3301 526.49 74.1901 532.34 74.1901V90.9401C531.65 90.7901 530.97 90.6701 530.32 90.5901C529.66 90.5101 529.03 90.4701 528.41 90.4701C523.33 90.4701 519.28 91.9001 516.28 94.7401C513.28 97.5901 511.77 101.98 511.77 107.91V137.26H493.75L493.76 137.27Z" fill="#444444"/>
<path d="M572.67 138.2C565.58 138.2 559.38 136.81 554.07 134.04C548.76 131.27 544.63 127.47 541.71 122.66C538.78 117.85 537.32 112.36 537.32 106.2C537.32 100.04 538.72 94.53 541.54 89.68C544.35 84.83 548.28 81.04 553.32 78.3C558.36 75.57 564.04 74.2 570.36 74.2C576.68 74.2 581.93 75.51 586.82 78.13C591.71 80.75 595.58 84.45 598.43 89.22C601.28 94 602.7 99.73 602.7 106.43C602.7 107.12 602.66 107.91 602.58 108.8C602.5 109.69 602.42 110.51 602.35 111.28H551.86V100.77H592.87L585.82 103.89C585.9 100.66 585.28 97.84 583.97 95.46C582.66 93.07 580.85 91.21 578.54 89.86C576.23 88.51 573.53 87.84 570.45 87.84C567.37 87.84 564.65 88.52 562.3 89.86C559.95 91.21 558.12 93.09 556.81 95.52C555.5 97.95 554.85 100.82 554.85 104.13V106.9C554.85 110.37 555.62 113.37 557.16 115.91C558.7 118.45 560.82 120.4 563.51 121.74C566.21 123.09 569.44 123.76 573.21 123.76C576.44 123.76 579.31 123.26 581.82 122.26C584.32 121.26 586.61 119.76 588.69 117.75L598.28 128.15C595.43 131.38 591.85 133.87 587.54 135.6C583.23 137.33 578.26 138.2 572.64 138.2H572.67Z" fill="#444444"/>
<path d="M616 137.27V56.4H650.54C661.78 56.4 670.53 59 676.77 64.2C683.01 69.4 686.13 76.54 686.13 85.63C686.13 91.71 684.7 96.93 681.86 101.28C679.01 105.63 674.97 108.95 669.73 111.22C664.49 113.49 658.25 114.63 651.01 114.63H626.29L634.84 106.54V137.27H616.01H616ZM634.83 108.62L626.28 99.72H649.96C655.66 99.72 659.97 98.49 662.9 96.02C665.83 93.56 667.29 90.09 667.29 85.62C667.29 81.15 665.83 77.71 662.9 75.28C659.97 72.85 655.66 71.64 649.96 71.64H626.28L634.83 62.74V108.61V108.62ZM667.53 137.27L647.2 107.92H667.3L687.63 137.27H667.53Z" fill="#444444"/>
<path d="M718.361 138.2C713.581 138.2 709.461 137.37 706.001 135.72C702.541 134.07 699.861 131.81 697.971 128.96C696.081 126.11 695.141 122.91 695.141 119.37C695.141 115.83 696.041 112.54 697.861 109.72C699.671 106.91 702.541 104.73 706.471 103.19C710.401 101.65 715.561 100.88 721.951 100.88H738.361V111.28H723.801C719.561 111.28 716.651 111.97 715.081 113.36C713.501 114.75 712.711 116.48 712.711 118.56C712.711 120.87 713.611 122.7 715.431 124.05C717.241 125.4 719.681 126.07 722.771 126.07C725.861 126.07 728.601 125.38 731.031 123.99C733.461 122.6 735.171 120.49 736.171 117.64L738.941 126.07C737.631 129.92 735.241 132.91 731.781 135.02C728.311 137.14 723.851 138.2 718.381 138.2H718.361ZM737.311 137.28V125.15L736.151 122.49V100.77C736.151 96.92 734.971 93.9199 732.631 91.7599C730.281 89.5999 726.681 88.52 721.831 88.52C718.521 88.52 715.261 89.04 712.071 90.08C708.871 91.12 706.121 92.53 703.811 94.3L697.461 81.71C700.851 79.25 704.931 77.38 709.711 76.11C714.481 74.84 719.341 74.2 724.271 74.2C733.741 74.2 741.101 76.44 746.341 80.9C751.581 85.37 754.201 92.34 754.201 101.81V137.28H737.331H737.311Z" fill="#444444"/>
<path d="M763.07 88.98V75.12H806.16V88.98H763.07ZM795.88 138.2C788.56 138.2 782.86 136.33 778.78 132.6C774.7 128.86 772.66 123.3 772.66 115.9V61.37H790.8V115.56C790.8 118.18 791.47 120.22 792.82 121.68C794.17 123.14 796 123.87 798.31 123.87C801.24 123.87 803.7 123.1 805.7 121.56L810.44 134.27C808.67 135.58 806.49 136.56 803.91 137.22C801.33 137.87 798.65 138.2 795.88 138.2Z" fill="#444444"/>
<path d="M849.379 138.2C842.289 138.2 836.089 136.81 830.779 134.04C825.469 131.27 821.339 127.47 818.419 122.66C815.489 117.85 814.029 112.36 814.029 106.2C814.029 100.04 815.429 94.53 818.249 89.68C821.059 84.83 824.989 81.04 830.029 78.3C835.069 75.57 840.749 74.2 847.069 74.2C853.389 74.2 858.639 75.51 863.529 78.13C868.419 80.75 872.289 84.45 875.139 89.22C877.989 94 879.409 99.73 879.409 106.43C879.409 107.12 879.369 107.91 879.289 108.8C879.209 109.69 879.129 110.51 879.059 111.28H828.569V100.77H869.579L862.529 103.89C862.609 100.66 861.989 97.84 860.679 95.46C859.369 93.07 857.559 91.21 855.249 89.86C852.939 88.51 850.239 87.84 847.159 87.84C844.079 87.84 841.359 88.52 839.009 89.86C836.659 91.21 834.829 93.09 833.519 95.52C832.209 97.95 831.559 100.82 831.559 104.13V106.9C831.559 110.37 832.329 113.37 833.869 115.91C835.409 118.45 837.529 120.4 840.219 121.74C842.919 123.09 846.149 123.76 849.919 123.76C853.149 123.76 856.019 123.26 858.529 122.26C861.029 121.26 863.319 119.76 865.399 117.75L874.989 128.15C872.139 131.38 868.559 133.87 864.249 135.6C859.939 137.33 854.969 138.2 849.349 138.2H849.379Z" fill="#444444"/>
<path d="M912.34 138.2C907.03 138.2 901.94 137.57 897.09 136.29C892.24 135.02 888.35 133.42 885.42 131.5L891.31 118.68C894.24 120.37 897.64 121.78 901.53 122.9C905.42 124.02 909.25 124.57 913.03 124.57C917.19 124.57 920.14 124.07 921.87 123.07C923.6 122.07 924.47 120.68 924.47 118.91C924.47 117.45 923.79 116.35 922.45 115.62C921.1 114.89 919.33 114.33 917.14 113.95C914.94 113.57 912.5 113.18 909.8 112.79C907.1 112.41 904.43 111.87 901.77 111.17C899.11 110.48 896.65 109.49 894.38 108.22C892.11 106.95 890.3 105.2 888.95 102.96C887.6 100.73 886.93 97.8401 886.93 94.2901C886.93 90.3601 888.09 86.88 890.4 83.83C892.71 80.79 895.98 78.42 900.22 76.72C904.46 75.03 909.58 74.1801 915.59 74.1801C919.9 74.1801 924.24 74.66 928.59 75.62C932.94 76.58 936.62 77.91 939.62 79.61L933.5 92.4301C930.57 90.7401 927.59 89.5401 924.55 88.8501C921.51 88.1601 918.6 87.81 915.83 87.81C911.67 87.81 908.67 88.3501 906.82 89.4301C904.97 90.5101 904.05 91.9 904.05 93.59C904.05 95.13 904.74 96.3 906.13 97.11C907.52 97.92 909.33 98.5201 911.56 98.9001C913.79 99.2901 916.26 99.67 918.95 100.06C921.65 100.45 924.3 100.98 926.92 101.68C929.54 102.37 931.98 103.36 934.26 104.63C936.53 105.9 938.34 107.65 939.69 109.89C941.04 112.13 941.71 115.01 941.71 118.56C941.71 122.34 940.55 125.71 938.24 128.67C935.93 131.64 932.6 133.97 928.25 135.66C923.9 137.35 918.6 138.2 912.36 138.2H912.34Z" fill="#444444"/>
<path d="M80.9794 0C80.9794 0 67.3494 2.75 37.7794 10.37C9.8494 17.57 0.0493951 20.45 0.0493951 20.45C0.0493951 20.45 -1.3906 49.25 11.2794 101.37C21.5094 143.45 59.6594 166.74 80.9694 179.93C102.279 166.74 140.429 143.45 150.659 101.37C163.329 49.24 161.889 20.45 161.889 20.45C161.889 20.45 152.099 17.57 124.159 10.37C94.5894 2.75 80.9594 0 80.9594 0H80.9794Z" fill="#3498DB"/>
<path d="M38.0194 81.95C48.2294 82.43 56.2594 87.5 62.4394 95.87C63.2094 96.92 63.8994 98.03 64.6294 99.1C65.8294 100.85 66.4594 100.85 67.5694 99.04C70.6994 93.93 73.9694 88.91 77.5094 84.07C92.2094 63.93 110.559 47.7 131.279 34.02C132.209 33.41 133.219 32.61 134.209 33.79C135.249 35.03 134.249 35.98 133.469 36.84C124.639 46.6 116.299 56.78 108.469 67.36C92.7894 88.53 79.4294 111.06 68.7194 135.14C68.2994 136.08 68.0094 137.23 66.7094 137.27C65.2694 137.32 64.9894 136.08 64.5894 135.06C58.7794 120.47 51.6794 106.6 42.0394 94.13C39.8094 91.25 37.3894 88.52 35.0494 85.72C34.3994 84.95 33.3294 84.32 33.7994 83.08C34.3094 81.74 35.5594 81.98 36.6494 81.95C36.9794 81.95 37.2994 81.95 38.0194 81.95Z" fill="white"/>
</svg>
